<?xml version="1.0" encoding="UTF-8" standalone="no"?>
<!-- Created with Inkscape (http://www.inkscape.org/) -->

<svg
   version="1.1"
   id="svg61461"
   width="800"
   height="800"
   viewBox="0 0 800 800"
   sodipodi:docname="forest-vector-graphics-pdv.svg"
   inkscape:version="1.2 (dc2aedaf03, 2022-05-15)"
   xmlns:inkscape="http://www.inkscape.org/namespaces/inkscape"
   xmlns:sodipodi="http://sodipodi.sourceforge.net/DTD/sodipodi-0.dtd"
   xmlns="http://www.w3.org/2000/svg"
   xmlns:svg="http://www.w3.org/2000/svg">
  <defs
     id="defs61465">
    <clipPath
       clipPathUnits="userSpaceOnUse"
       id="clipPath61479">
      <path
         d="M 0,600 H 600 V 0 H 0 Z"
         id="path61477" />
    </clipPath>
  </defs>
  <sodipodi:namedview
     id="namedview61463"
     pagecolor="#ffffff"
     bordercolor="#000000"
     borderopacity="0.25"
     inkscape:showpageshadow="2"
     inkscape:pageopacity="0.0"
     inkscape:pagecheckerboard="0"
     inkscape:deskcolor="#d1d1d1"
     showgrid="false"
     inkscape:zoom="1.04625"
     inkscape:cx="400"
     inkscape:cy="324.01434"
     inkscape:window-width="1920"
     inkscape:window-height="1017"
     inkscape:window-x="-8"
     inkscape:window-y="-8"
     inkscape:window-maximized="1"
     inkscape:current-layer="g61469">
    <inkscape:page
       x="0"
       y="0"
       id="page61467"
       width="800"
       height="800" />
  </sodipodi:namedview>
  <g
     id="g61469"
     inkscape:groupmode="layer"
     inkscape:label="Page 1"
     transform="matrix(1.3333333,0,0,-1.3333333,0,800)">
    <path
       d="M 0,0 H 598.434 V 597.515 H 0 Z"
       style="fill:#b2d6ff;fill-opacity:1;fill-rule:nonzero;stroke:none"
       id="path61471" />
    <g
       id="g61473">
      <g
         id="g61475"
         clip-path="url(#clipPath61479)">
        <g
           id="g61481"
           transform="translate(525.7979,398.0249)">
          <path
             d="m 0,0 c -2.873,0 -5.525,-0.953 -7.656,-2.559 0.008,0.215 0.013,0.431 0.013,0.648 0,8.442 -6.843,15.286 -15.286,15.286 -3.792,0 -7.261,-1.38 -9.931,-3.667 -3.477,5.639 -9.708,9.4 -16.82,9.4 -9.822,0 -17.968,-7.173 -19.489,-16.566 -3.408,3.164 -7.975,5.101 -12.994,5.101 -9.243,0 -16.955,-6.566 -18.726,-15.286 H 11.678 C 9.712,-3.145 5.224,0 0,0"
             style="fill:#ffffff;fill-opacity:1;fill-rule:evenodd;stroke:none"
             id="path61483" />
        </g>
        <g
           id="g61485"
           transform="translate(20.1567,404.2051)">
          <path
             d="m 0,0 c -0.351,1.729 -0.536,3.518 -0.536,5.351 0,14.774 11.977,26.751 26.751,26.751 8.835,0 16.667,-4.284 21.538,-10.887 3.973,5.965 10.756,9.895 18.459,9.895 11.054,0 20.216,-8.091 21.89,-18.674 2.142,-1.584 4.047,-3.467 5.652,-5.59 3.891,4.025 9.348,6.529 15.389,6.529 5.489,0 10.497,-2.067 14.283,-5.466 0.407,9.489 8.228,17.058 17.817,17.058 9.85,0 17.834,-7.984 17.834,-17.833 0,-2.536 -0.53,-4.95 -1.486,-7.134 z"
             style="fill:#ffffff;fill-opacity:1;fill-rule:evenodd;stroke:none"
             id="path61487" />
        </g>
        <g
           id="g61489"
           transform="translate(243.2153,543.2441)">
          <path
             d="m 0,0 c 2.874,0 5.526,-0.952 7.658,-2.558 -0.01,0.215 -0.015,0.43 -0.015,0.647 0,8.443 6.845,15.287 15.286,15.287 3.792,0 7.26,-1.381 9.932,-3.667 3.476,5.639 9.709,9.399 16.82,9.399 9.822,0 17.968,-7.173 19.489,-16.566 3.408,3.166 7.974,5.101 12.994,5.101 9.244,0 16.955,-6.564 18.724,-15.286 H -11.678 C -9.712,-3.144 -5.224,0 0,0"
             style="fill:#ffffff;fill-opacity:1;fill-rule:evenodd;stroke:none"
             id="path61491" />
        </g>
        <g
           id="g61493"
           transform="translate(536.7539,502.7686)">
          <path
             d="m 0,0 c 0.352,1.729 0.535,3.518 0.535,5.351 0,14.774 -11.975,26.751 -26.75,26.751 -8.835,0 -16.668,-4.284 -21.538,-10.886 -3.973,5.964 -10.757,9.894 -18.46,9.894 -11.053,0 -20.215,-8.091 -21.89,-18.674 -2.14,-1.583 -4.046,-3.467 -5.651,-5.59 -3.892,4.025 -9.348,6.529 -15.389,6.529 -5.489,0 -10.497,-2.067 -14.285,-5.465 -0.405,9.489 -8.226,17.058 -17.814,17.058 -9.851,0 -17.835,-7.985 -17.835,-17.834 0,-2.537 0.53,-4.949 1.485,-7.134 z"
             style="fill:#ffffff;fill-opacity:1;fill-rule:evenodd;stroke:none"
             id="path61495" />
        </g>
        <g
           id="g61497"
           transform="translate(184.6548,437.7734)">
          <path
             d="m 0,0 c 35.783,0 64.967,29.184 64.967,64.967 0,35.782 -29.184,64.967 -64.967,64.967 -35.782,0 -64.967,-29.185 -64.967,-64.967 C -64.967,29.184 -35.782,0 0,0"
             style="fill:#84a7cf;fill-opacity:1;fill-rule:evenodd;stroke:none"
             id="path61499" />
        </g>
        <g
           id="g61501"
           transform="translate(236.7192,398.8271)">
          <path
             d="m 0,0 c 11.997,0 21.782,9.785 21.782,21.783 0,11.998 -9.785,21.783 -21.782,21.783 -11.997,0 -21.783,-9.785 -21.783,-21.783 C -21.783,9.785 -11.997,0 0,0"
             style="fill:#84a7cf;fill-opacity:1;fill-rule:evenodd;stroke:none"
             id="path61503" />
        </g>
        <g
           id="g61505"
           transform="translate(184.6538,500.4468)">
          <path
             d="M 0,0 H 0.001 C 6.306,0 11.466,-5.158 11.466,-11.465 V -170.158 H -11.465 V -11.465 C -11.465,-5.158 -6.306,0 0,0"
             style="fill:#70675e;fill-opacity:1;fill-rule:evenodd;stroke:none"
             id="path61507" />
        </g>
        <g
           id="g61509"
           transform="translate(196.1196,385.3506)">
          <path
             d="m 0,0 c -2.992,0 -5.417,2.425 -5.417,5.417 0,2.99 2.425,5.416 5.417,5.416 h 24.236 c 2.881,0 5.501,1.177 7.399,3.077 1.899,1.899 3.077,4.516 3.077,7.398 v 4.554 c 0,2.992 2.424,5.416 5.416,5.416 2.992,0 5.416,-2.424 5.416,-5.416 V 21.308 C 45.544,15.437 43.152,10.109 39.294,6.25 35.436,2.393 30.107,0 24.236,0 Z"
             style="fill:#635b52;fill-opacity:1;fill-rule:evenodd;stroke:none"
             id="path61511" />
        </g>
        <g
           id="g61513"
           transform="translate(442.8926,427.3013)">
          <path
             d="m 0,0 c 27.861,0 50.584,22.723 50.584,50.583 0,27.861 -22.723,50.583 -50.584,50.583 -27.86,0 -50.583,-22.722 -50.583,-50.583 C -50.583,22.723 -27.86,0 0,0"
             style="fill:#84a7cf;fill-opacity:1;fill-rule:evenodd;stroke:none"
             id="path61515" />
        </g>
        <g
           id="g61517"
           transform="translate(442.8926,475.835)">
          <path
             d="m 0,0 v 0 c 6.307,0 11.465,-5.158 11.465,-11.465 v -158.693 h -22.93 V -11.465 C -11.465,-5.158 -6.306,0 0,0"
             style="fill:#70675e;fill-opacity:1;fill-rule:evenodd;stroke:none"
             id="path61519" />
        </g>
        <g
           id="g61521"
           transform="translate(393.6973,385.2886)">
          <path
             d="M 0,0 C 14.104,0 25.608,11.502 25.608,25.606 25.608,39.71 14.104,51.213 0,51.213 -14.104,51.213 -25.607,39.71 -25.607,25.606 -25.607,11.502 -14.104,0 0,0"
             style="fill:#84a7cf;fill-opacity:1;fill-rule:evenodd;stroke:none"
             id="path61523" />
        </g>
        <g
           id="g61525"
           transform="translate(433.8262,366.3076)">
          <path
             d="m 0,0 c 2.992,0 5.417,2.425 5.417,5.417 0,2.99 -2.425,5.416 -5.417,5.416 h -24.236 c -2.881,0 -5.5,1.177 -7.4,3.076 -1.898,1.9 -3.076,4.517 -3.076,7.398 v 20.415 c 0,2.99 -2.425,5.416 -5.417,5.416 -2.99,0 -5.416,-2.426 -5.416,-5.416 V 21.307 c 0,-5.87 2.394,-11.198 6.251,-15.057 C -35.437,2.392 -30.107,0 -24.236,0 Z"
             style="fill:#635b52;fill-opacity:1;fill-rule:evenodd;stroke:none"
             id="path61527" />
        </g>
        <g
           id="g61529"
           transform="translate(41.9268,328.9302)">
          <path
             d="m 0,0 c 1.74,-3.252 2.854,-6.889 3.182,-10.751 4.491,6.412 11.934,10.607 20.357,10.607 2.263,0 4.455,-0.304 6.537,-0.871 2.242,7.148 8.917,12.335 16.805,12.335 2.137,0 4.185,-0.38 6.08,-1.078 5.799,6.744 14.393,11.013 23.984,11.013 7.364,0 14.139,-2.518 19.516,-6.74 2.298,6.914 8.818,11.9 16.503,11.9 3.887,0 7.478,-1.276 10.374,-3.433 1.429,4.109 4.676,7.367 8.779,8.81 0.376,7.581 6.639,13.612 14.313,13.612 7.915,0 14.331,-6.416 14.331,-14.331 0,-3.112 -0.993,-5.992 -2.677,-8.34 0.433,0.035 0.871,0.052 1.311,0.052 6.805,0 12.629,-4.184 15.048,-10.121 3.314,6.356 9.964,10.693 17.627,10.693 0.712,0 1.413,-0.038 2.107,-0.11 -0.111,0.712 -0.168,1.444 -0.168,2.189 0,6.288 4.076,11.623 9.73,13.508 -0.836,1.245 -1.324,2.745 -1.324,4.357 0,4.327 3.509,7.835 7.835,7.835 4.327,0 7.835,-3.508 7.835,-7.835 0,-2.242 -0.943,-4.265 -2.454,-5.694 4.106,-2.496 6.848,-7.014 6.848,-12.171 0,-2.862 -0.845,-5.527 -2.299,-7.759 3.896,-0.66 7.464,-2.284 10.452,-4.615 2.593,4.389 7.372,7.334 12.841,7.334 2.805,0 5.431,-0.775 7.672,-2.124 5.149,6.199 12.822,10.228 21.441,10.514 -0.046,0.495 -0.07,0.998 -0.07,1.504 0,8.889 7.205,16.093 16.091,16.093 8.889,0 16.093,-7.204 16.093,-16.093 0,-1.014 -0.095,-2.006 -0.273,-2.969 1.695,0.59 3.517,0.909 5.415,0.909 7.367,0 13.604,-4.828 15.723,-11.493 0.831,0.144 1.684,0.219 2.555,0.219 6.174,0 11.471,-3.753 13.734,-9.104 6.582,-0.712 12.246,-4.496 15.53,-9.887 2.922,5.161 7.503,9.258 13.018,11.568 -0.407,1.223 -0.627,2.53 -0.627,3.889 0,6.807 5.517,12.324 12.325,12.324 6.807,0 12.324,-5.517 12.324,-12.324 0,-1.766 -0.372,-3.445 -1.041,-4.963 5.927,-3.163 10.528,-8.484 12.755,-14.916 1.595,0.68 3.352,1.058 5.197,1.058 2.861,0 5.511,-0.906 7.679,-2.446 1.512,7.996 6.27,14.842 12.849,19.121 -1.33,2.356 -2.09,5.075 -2.09,7.974 0,8.969 7.273,16.242 16.243,16.242 8.969,0 16.241,-7.273 16.241,-16.242 0,-2.254 -0.459,-4.4 -1.289,-6.351 7.079,-3.551 12.518,-9.883 14.89,-17.562 0.607,-0.502 1.179,-1.042 1.715,-1.617 2.078,9.201 10.302,16.07 20.129,16.07 8.326,0 15.5,-4.932 18.763,-12.034 2.676,2.704 6.143,4.622 10.028,5.376 -1.654,2.584 -2.613,5.656 -2.613,8.952 0,5.476 2.648,10.334 6.734,13.362 -0.03,0.447 -0.047,0.897 -0.047,1.351 0,10.764 8.726,19.49 19.491,19.49 2.261,0 4.43,-0.386 6.45,-1.095 V -330.495 H -42.571 V 14.883 c 0,13.202 10.702,23.952 23.904,23.952 13.202,0 23.904,-10.702 23.904,-23.904 C 5.237,9.282 3.276,4.09 0,0"
             style="fill:#84a7cf;fill-opacity:1;fill-rule:evenodd;stroke:none"
             id="path61531" />
        </g>
        <g
           id="g61533"
           transform="translate(8.8467,300.8633)">
          <path
             d="m 0,0 c 4.898,0 12.532,-1.93 17.583,-5.242 32.232,49.21 89.403,9.165 76.928,-23.472 11.574,-2.15 20.411,-12.08 20.88,-24.159 0.76,0.087 0.671,0.135 2.315,0.135 1.642,0 4.898,-0.466 7.105,-1.311 1.801,14.526 14.272,25.768 29.2,25.768 14.926,0 27.112,-10.987 29.132,-25.269 0.477,0.03 -1.699,0.046 1.441,0.046 3.14,0 11.081,-2.187 15.074,-5.78 1.493,13.146 12.659,23.359 26.198,23.359 13.539,0 24.678,-10.19 26.192,-23.314 20.366,11.217 42.184,-11.314 33.988,-31.907 2.386,1.102 2.992,1.719 7.845,1.719 4.851,0 12.933,-3.735 16.179,-9.295 -15.334,31.148 13.09,63.37 42.469,42.086 1.681,15.936 21.833,28.355 31.542,28.355 9.706,0 5.966,-0.427 8.743,-1.222 3.33,16.396 17.073,28.736 35.204,28.736 18.132,0 34.368,-14.574 35.812,-33.088 1.163,0.147 -3.353,0.223 3.551,0.223 6.904,0 23.258,-8.362 26.715,-19.842 3.901,2.404 4.042,3.79 13.411,3.79 9.371,0 25.087,-10.954 25.586,-24.654 2.05,0.378 -0.672,0.578 6.325,0.578 6.997,0 22.276,-5.943 28.512,-15.008 2.216,4.174 5.293,7.818 8.995,10.697 -5.14,5.692 -8.273,10.471 -8.273,21.509 0,11.038 8.712,25.569 20.936,30.106 V -302.428 H -9.491 v 301 C -6.491,-0.502 -4.897,0 0,0"
             style="fill:#6c9c84;fill-opacity:1;fill-rule:evenodd;stroke:none"
             id="path61535" />
        </g>
        <g
           id="g61537"
           transform="translate(188.2002,283.8828)">
          <path
             d="M 0,0 H 0.003 C 9.079,0 16.504,-7.426 16.504,-16.502 V -182 H -16.5 V -16.502 C -16.5,-7.426 -9.075,0 0,0"
             style="fill:#785e43;fill-opacity:1;fill-rule:evenodd;stroke:none"
             id="path61539" />
        </g>
        <path
           d="m 443.15,105.33 h 32.102 V 271.952 H 443.15 Z"
           style="fill:#785e43;fill-opacity:1;fill-rule:evenodd;stroke:none"
           id="path61541" />
        <g
           id="g61543"
           transform="translate(208.438,347.5752)">
          <path
             d="m 0,0 c 20.337,0 37.198,-14.88 40.293,-34.347 16.695,-7.651 28.29,-24.505 28.29,-44.07 0,-26.761 -21.694,-48.455 -48.455,-48.455 -6.593,0 -12.881,1.318 -18.61,3.705 -7.431,-15.574 -23.321,-26.337 -41.727,-26.337 -25.52,0 -46.207,20.688 -46.207,46.207 0,0.708 0.018,1.411 0.05,2.111 -13.722,9.64 -22.689,25.583 -22.689,43.625 0,29.426 23.853,53.279 53.279,53.279 9.922,0 19.207,-2.714 27.161,-7.436 C -21.25,-4.473 -11.149,0 0,0"
             style="fill:#4d821f;fill-opacity:1;fill-rule:evenodd;stroke:none"
             id="path61545" />
        </g>
        <g
           id="g61547"
           transform="translate(437.6006,249.6123)">
          <path
             d="m 0,0 c -3.897,-8.896 -12.778,-15.112 -23.112,-15.112 -13.929,0 -25.222,11.293 -25.222,25.223 0,10.034 5.859,18.698 14.343,22.761 -2.265,6.03 -3.508,12.562 -3.508,19.384 0,30.453 24.688,55.139 55.14,55.139 30.453,0 55.139,-24.686 55.139,-55.139 0,-5.165 -0.712,-10.165 -2.041,-14.905 12.282,-5.71 20.796,-18.156 20.796,-32.591 0,-19.839 -16.082,-35.922 -35.923,-35.922 -17.242,0 -31.643,12.147 -35.121,28.35 -0.944,-0.046 -1.894,-0.072 -2.85,-0.072 C 11.472,-2.884 5.539,-1.869 0,0"
             style="fill:#4d821f;fill-opacity:1;fill-rule:evenodd;stroke:none"
             id="path61549" />
        </g>
        <g
           id="g61551"
           transform="translate(-0.6445,188.9658)">
          <path
             d="m 0,0 c 9.782,-1.576 18.048,-7.678 22.581,-16.091 3.652,16.857 18.65,29.486 36.6,29.486 2.644,0 5.221,-0.276 7.709,-0.796 0.965,14.531 13.057,26.019 27.834,26.019 15.351,0 27.803,-12.4 27.894,-27.73 12.377,-3.034 22.182,-12.614 25.537,-24.861 3.44,0.9 7.048,1.381 10.769,1.381 15.575,0 29.186,-8.394 36.563,-20.904 4.034,2.123 8.627,3.324 13.501,3.324 3.666,0 7.173,-0.681 10.402,-1.921 5.578,13.68 19.008,23.322 34.693,23.322 20.683,0 37.451,-16.767 37.451,-37.451 0,-0.431 -0.01,-0.862 -0.024,-1.29 3.447,1.326 7.191,2.054 11.106,2.054 7.994,0 15.281,-3.031 20.773,-8.007 5.437,10.651 16.513,17.944 29.29,17.944 3.985,0 7.803,-0.71 11.338,-2.009 4.623,19.064 20.241,33.832 39.763,37.203 -2.34,3.347 -3.713,7.418 -3.713,11.81 0,11.398 9.24,20.636 20.637,20.636 11.398,0 20.637,-9.238 20.637,-20.636 0,-6.431 -2.943,-12.174 -7.554,-15.959 16.593,-7.974 28.072,-24.896 28.186,-44.511 9.676,-1.605 18.002,-7.204 23.228,-15.046 2.538,22.072 21.284,39.212 44.036,39.212 18.032,0 33.548,-10.767 40.474,-26.223 1.264,0.154 2.55,0.235 3.856,0.235 10.521,0 19.829,-5.183 25.512,-13.136 V -190.53 L 0,-190.53 Z"
             style="fill:#abde7e;fill-opacity:1;fill-rule:evenodd;stroke:none"
             id="path61553" />
        </g>
        <g
           id="g61555"
           transform="translate(598.4346,97.7002)">
          <path
             d="m 0,0 v -99.265 h -599.079 v 32.169 c 3.417,1.342 7.137,2.079 11.029,2.079 1.478,0 2.929,-0.108 4.349,-0.314 1.298,12.371 11.272,22.152 23.727,23.156 -3.979,6.131 -6.292,13.443 -6.292,21.298 0,21.633 17.538,39.171 39.171,39.171 21.634,0 39.172,-17.538 39.172,-39.171 0,-4.322 -0.702,-8.48 -1.994,-12.367 7.959,-6.225 13.075,-15.917 13.075,-26.805 0,-2.751 -0.329,-5.426 -0.945,-7.988 2.279,0.475 4.64,0.727 7.06,0.727 12.955,0 24.235,-7.164 30.101,-17.745 2.479,0.607 5.067,0.93 7.733,0.93 0.909,0 1.806,-0.04 2.695,-0.112 4.436,12.666 14.872,22.51 27.901,26.127 -5.005,5.633 -8.047,13.051 -8.047,21.181 0,17.624 14.286,31.911 31.91,31.911 5.286,0 10.269,-1.286 14.659,-3.561 1.556,8.117 5.58,15.357 11.263,20.906 -1.31,2.998 -2.038,6.308 -2.038,9.787 0,13.509 10.95,24.458 24.458,24.458 13.508,0 24.459,-10.949 24.459,-24.458 0,-1.099 -0.075,-2.181 -0.216,-3.243 12.417,-6.722 20.851,-19.86 20.851,-34.972 0,-1.55 -0.091,-3.079 -0.264,-4.583 14.028,-10.359 23.582,-26.427 25.229,-44.776 8.93,-1.271 16.998,-5.225 23.356,-11.021 1.637,18.811 15.224,34.2 33.13,38.526 -0.776,2.302 -1.197,4.768 -1.197,7.332 0,12.663 10.266,22.93 22.929,22.93 11.767,0 21.462,-8.864 22.776,-20.279 1.284,0.266 2.614,0.407 3.977,0.407 4.998,0 9.553,-1.879 13.002,-4.971 7.7,13.038 21.894,21.785 38.132,21.785 10.184,0 19.561,-3.441 27.038,-9.221 0.89,2.086 1.997,4.057 3.294,5.883 -4.867,3.126 -8.092,8.588 -8.092,14.803 0,9.709 7.87,17.58 17.578,17.58 9.709,0 17.579,-7.871 17.579,-17.58 0,-0.525 -0.025,-1.044 -0.07,-1.556 8.859,-0.363 16.771,-4.386 22.269,-10.595 C -17.547,-5.613 -9.197,-1.562 0,0"
             style="fill:#6ca33c;fill-opacity:1;fill-rule:evenodd;stroke:none"
             id="path61557" />
        </g>
        <g
           id="g61559"
           transform="translate(43.6411,284.8301)">
          <path
             d="m 0,0 h 16.822 c 14.113,0 26.931,5.763 36.226,15.055 9.293,9.296 15.055,22.113 15.055,36.226 V 312.685 H 96.99 V 51.281 C 96.99,29.194 87.989,9.148 73.472,-5.369 58.955,-19.887 38.909,-28.887 16.822,-28.887 H 0 Z"
             style="fill:#bd7b38;fill-opacity:1;fill-rule:evenodd;stroke:none"
             id="path61561" />
        </g>
        <path
           d="M -0.645,-1.564 H 47.08 v 599.08 H -0.645 Z"
           style="fill:#cf8d4b;fill-opacity:1;fill-rule:evenodd;stroke:none"
           id="path61563" />
        <g
           id="g61565"
           transform="translate(590.2959,266.0859)">
          <path
             d="m 0,0 h -16.823 c -14.112,0 -26.931,5.762 -36.224,15.055 -9.294,9.294 -15.056,22.112 -15.056,36.224 V 312.684 H -96.989 V 51.279 c 0,-22.087 9,-42.131 23.517,-56.648 14.519,-14.518 34.563,-23.52 56.649,-23.52 l 16.823,0 z"
             style="fill:#bd7b38;fill-opacity:1;fill-rule:evenodd;stroke:none"
             id="path61567" />
        </g>
        <path
           d="m 550.711,-1.564 h 47.725 v 599.08 h -47.725 z"
           style="fill:#cf8d4b;fill-opacity:1;fill-rule:evenodd;stroke:none"
           id="path61569" />
        <g
           id="g61571"
           transform="translate(-0.6445,597.5151)">
          <path
             d="m 0,0 h 599.079 v -64.172 c -0.537,-0.018 -1.076,-0.031 -1.618,-0.031 -20.852,0 -38.461,13.857 -44.132,32.865 h -0.007 c -0.89,0 -1.773,0.032 -2.647,0.092 -6.686,-13.634 -20.699,-23.021 -36.907,-23.021 -16.398,0 -30.549,9.608 -37.137,23.5 -5.416,-2.806 -11.565,-4.392 -18.085,-4.392 -6.736,0 -13.076,1.693 -18.62,4.676 -9.375,-6.786 -20.896,-10.79 -33.353,-10.79 -15.507,0 -29.562,6.2 -39.831,16.255 -1.227,-0.134 -2.472,-0.206 -3.735,-0.206 -12.26,0 -23.003,6.489 -28.989,16.217 -5.27,-10.521 -16.149,-17.745 -28.717,-17.745 -13.196,0 -24.529,7.963 -29.464,19.344 -2.865,-0.655 -5.848,-1 -8.911,-1 -9.143,0 -17.567,3.077 -24.294,8.251 -7.01,-5.639 -15.915,-9.016 -25.61,-9.016 -4.56,0 -8.945,0.748 -13.04,2.125 -1.801,-13.187 -13.109,-23.35 -26.794,-23.35 -3.567,0 -6.972,0.692 -10.091,1.948 -5.869,-3.173 -12.589,-4.976 -19.73,-4.976 -14.888,0 -27.945,7.831 -35.282,19.598 -5.546,-4.269 -12.49,-6.809 -20.028,-6.809 -4.349,0 -8.499,0.845 -12.298,2.379 -5.83,-12.252 -18.325,-20.723 -32.798,-20.723 -9.57,0 -18.274,3.706 -24.76,9.757 -3.588,-1.364 -7.478,-2.114 -11.545,-2.114 -3.732,0 -7.317,0.632 -10.656,1.791 z"
             style="fill:#d5ff87;fill-opacity:1;fill-rule:evenodd;stroke:none"
             id="path61573" />
        </g>
        <g
           id="g61575"
           transform="translate(13.4512,499.6768)">
          <path
             d="m 0,0 h 0.001 c 2.101,0 3.821,-1.72 3.821,-3.821 v -64.203 c 0,-2.102 -1.72,-3.822 -3.821,-3.822 H 0 c -2.102,0 -3.821,1.72 -3.821,3.822 V -3.821 C -3.821,-1.72 -2.102,0 0,0"
             style="fill:#bd7b38;fill-opacity:1;fill-rule:evenodd;stroke:none"
             id="path61577" />
        </g>
        <g
           id="g61579"
           transform="translate(38.1006,519.9312)">
          <path
             d="m 0,0 h 0.001 c 2.101,0 3.821,-1.719 3.821,-3.822 v -38.217 c 0,-2.101 -1.72,-3.82 -3.821,-3.82 H 0 c -2.102,0 -3.821,1.719 -3.821,3.82 V -3.822 C -3.821,-1.719 -2.102,0 0,0"
             style="fill:#bd7b38;fill-opacity:1;fill-rule:evenodd;stroke:none"
             id="path61581" />
        </g>
        <g
           id="g61583"
           transform="translate(6.7642,398.0225)">
          <path
             d="m 0,0 v 0 c 2.103,0 3.822,-1.719 3.822,-3.822 v -17.197 c 0,-2.102 -1.719,-3.821 -3.822,-3.821 -2.102,0 -3.821,1.719 -3.821,3.821 V -3.822 C -3.821,-1.719 -2.102,0 0,0"
             style="fill:#bd7b38;fill-opacity:1;fill-rule:evenodd;stroke:none"
             id="path61585" />
        </g>
        <g
           id="g61587"
           transform="translate(31.6045,369.3604)">
          <path
             d="m 0,0 v 0 c 2.102,0 3.822,-1.719 3.822,-3.821 v -4.778 c 0,-2.102 -1.72,-3.821 -3.822,-3.821 v 0 c -2.102,0 -3.821,1.719 -3.821,3.821 v 4.778 C -3.821,-1.719 -2.102,0 0,0"
             style="fill:#bd7b38;fill-opacity:1;fill-rule:evenodd;stroke:none"
             id="path61589" />
        </g>
        <g
           id="g61591"
           transform="translate(14.0249,347.5781)">
          <path
             d="m 0,0 h 0.001 c 2.101,0 3.821,-1.719 3.821,-3.822 v -38.216 c 0,-2.102 -1.72,-3.821 -3.821,-3.821 H 0 c -2.102,0 -3.822,1.719 -3.822,3.821 V -3.822 C -3.822,-1.719 -2.102,0 0,0"
             style="fill:#bd7b38;fill-opacity:1;fill-rule:evenodd;stroke:none"
             id="path61593" />
        </g>
        <g
           id="g61595"
           transform="translate(30.5195,318.498)">
          <path
             d="M 0,0 V 0 C 2.102,0 3.822,-1.719 3.822,-3.822 V -21.02 c 0,-2.101 -1.72,-3.822 -3.822,-3.822 -2.102,0 -3.821,1.721 -3.821,3.822 V -3.822 C -3.821,-1.719 -2.102,0 0,0"
             style="fill:#bd7b38;fill-opacity:1;fill-rule:evenodd;stroke:none"
             id="path61597" />
        </g>
        <g
           id="g61599"
           transform="translate(7.9111,282.9932)">
          <path
             d="M 0,0 V 0 C 2.102,0 3.822,-1.72 3.822,-3.822 V -8.6 c 0,-2.101 -1.72,-3.822 -3.822,-3.822 -2.102,0 -3.821,1.721 -3.821,3.822 v 4.778 C -3.821,-1.72 -2.102,0 0,0"
             style="fill:#bd7b38;fill-opacity:1;fill-rule:evenodd;stroke:none"
             id="path61601" />
        </g>
        <g
           id="g61603"
           transform="translate(31.9863,273.8213)">
          <path
             d="m 0,0 v 0 c 2.103,0 3.822,-1.72 3.822,-3.822 v -64.967 c 0,-2.101 -1.719,-3.821 -3.822,-3.821 -2.102,0 -3.821,1.72 -3.821,3.821 V -3.822 C -3.821,-1.72 -2.102,0 0,0"
             style="fill:#bd7b38;fill-opacity:1;fill-rule:evenodd;stroke:none"
             id="path61605" />
        </g>
        <g
           id="g61607"
           transform="translate(14.4072,250.5098)">
          <path
             d="M 0,0 H 0.001 C 2.103,0 3.822,-1.72 3.822,-3.822 V -21.02 c 0,-2.101 -1.719,-3.822 -3.821,-3.822 H 0 c -2.102,0 -3.821,1.721 -3.821,3.822 V -3.822 C -3.821,-1.72 -2.102,0 0,0"
             style="fill:#bd7b38;fill-opacity:1;fill-rule:evenodd;stroke:none"
             id="path61609" />
        </g>
        <g
           id="g61611"
           transform="translate(35.0444,432.4165)">
          <path
             d="m 0,0 v 0 c 2.102,0 3.821,-1.719 3.821,-3.822 v -17.197 c 0,-2.102 -1.719,-3.821 -3.821,-3.821 -2.103,0 -3.822,1.719 -3.822,3.821 V -3.822 C -3.822,-1.719 -2.103,0 0,0"
             style="fill:#bd7b38;fill-opacity:1;fill-rule:evenodd;stroke:none"
             id="path61613" />
        </g>
        <g
           id="g61615"
           transform="translate(21.6685,543.6255)">
          <path
             d="m 0,0 h 0.001 c 2.101,0 3.821,-1.72 3.821,-3.822 v -4.777 c 0,-2.102 -1.72,-3.822 -3.821,-3.822 H 0 c -2.102,0 -3.821,1.72 -3.821,3.822 v 4.777 C -3.821,-1.72 -2.102,0 0,0"
             style="fill:#bd7b38;fill-opacity:1;fill-rule:evenodd;stroke:none"
             id="path61617" />
        </g>
        <g
           id="g61619"
           transform="translate(14.4692,164.8701)">
          <path
             d="m 0,0 v 0 c 2.102,0 3.821,-1.72 3.821,-3.822 v -17.197 c 0,-2.102 -1.719,-3.822 -3.821,-3.822 -2.102,0 -3.822,1.72 -3.822,3.822 V -3.822 C -3.822,-1.72 -2.102,0 0,0"
             style="fill:#bd7b38;fill-opacity:1;fill-rule:evenodd;stroke:none"
             id="path61621" />
        </g>
        <g
           id="g61623"
           transform="translate(32.751,132.8047)">
          <path
             d="m 0,0 v 0 c 2.102,0 3.822,-1.72 3.822,-3.82 v -32.486 c 0,-2.102 -1.72,-3.821 -3.822,-3.821 v 0 c -2.102,0 -3.822,1.719 -3.822,3.821 V -3.82 C -3.822,-1.72 -2.102,0 0,0"
             style="fill:#bd7b38;fill-opacity:1;fill-rule:evenodd;stroke:none"
             id="path61625" />
        </g>
        <g
           id="g61627"
           transform="translate(12.1147,118.2832)">
          <path
             d="M 0,0 V 0 C 2.103,0 3.822,-1.72 3.822,-3.822 V -21.02 c 0,-2.101 -1.719,-3.822 -3.822,-3.822 -2.102,0 -3.822,1.721 -3.822,3.822 V -3.822 C -3.822,-1.72 -2.102,0 0,0"
             style="fill:#bd7b38;fill-opacity:1;fill-rule:evenodd;stroke:none"
             id="path61629" />
        </g>
        <g
           id="g61631"
           transform="translate(27.0815,60.3418)">
          <path
             d="M 0,0 V 0 C 2.102,0 3.821,-1.72 3.821,-3.821 V -8.6 c 0,-2.1 -1.719,-3.821 -3.821,-3.821 -2.102,0 -3.822,1.721 -3.822,3.821 v 4.779 C -3.822,-1.72 -2.102,0 0,0"
             style="fill:#bd7b38;fill-opacity:1;fill-rule:evenodd;stroke:none"
             id="path61633" />
        </g>
        <g
           id="g61635"
           transform="translate(570.0664,503.498)">
          <path
             d="m 0,0 v 0 c 2.102,0 3.821,-1.719 3.821,-3.821 v -50.063 c 0,-2.101 -1.719,-3.822 -3.821,-3.822 -2.103,0 -3.822,1.721 -3.822,3.822 V -3.821 C -3.822,-1.719 -2.103,0 0,0"
             style="fill:#bd7b38;fill-opacity:1;fill-rule:evenodd;stroke:none"
             id="path61637" />
        </g>
        <g
           id="g61639"
           transform="translate(591.8486,517.6382)">
          <path
             d="m 0,0 h 0.001 c 2.102,0 3.822,-1.719 3.822,-3.821 v -4.778 c 0,-2.102 -1.72,-3.821 -3.822,-3.821 H 0 c -2.101,0 -3.82,1.719 -3.82,3.821 v 4.778 C -3.82,-1.719 -2.101,0 0,0"
             style="fill:#bd7b38;fill-opacity:1;fill-rule:evenodd;stroke:none"
             id="path61641" />
        </g>
        <g
           id="g61643"
           transform="translate(586.1162,488.9766)">
          <path
             d="m 0,0 h 0.001 c 2.102,0 3.822,-1.719 3.822,-3.822 v -17.197 c 0,-2.102 -1.72,-3.821 -3.822,-3.821 H 0 c -2.101,0 -3.82,1.719 -3.82,3.821 V -3.822 C -3.82,-1.719 -2.101,0 0,0"
             style="fill:#bd7b38;fill-opacity:1;fill-rule:evenodd;stroke:none"
             id="path61645" />
        </g>
        <g
           id="g61647"
           transform="translate(586.8799,406.0488)">
          <path
             d="m 0,0 h 0.002 c 2.1,0 3.821,-1.721 3.821,-3.822 v -64.966 c 0,-2.103 -1.721,-3.822 -3.821,-3.822 H 0 c -2.101,0 -3.821,1.719 -3.821,3.822 V -3.822 C -3.821,-1.721 -2.101,0 0,0"
             style="fill:#bd7b38;fill-opacity:1;fill-rule:evenodd;stroke:none"
             id="path61649" />
        </g>
        <g
           id="g61651"
           transform="translate(582.3574,441.5522)">
          <path
             d="m 0,0 v 0 c 2.101,0 3.821,-1.719 3.821,-3.821 v -17.197 c 0,-2.103 -1.72,-3.822 -3.821,-3.822 -2.102,0 -3.822,1.719 -3.822,3.822 V -3.821 C -3.822,-1.719 -2.102,0 0,0"
             style="fill:#bd7b38;fill-opacity:1;fill-rule:evenodd;stroke:none"
             id="path61653" />
        </g>
        <g
           id="g61655"
           transform="translate(562.041,425.5371)">
          <path
             d="m 0,0 v 0 c 2.102,0 3.821,-1.719 3.821,-3.821 v -38.216 c 0,-2.103 -1.719,-3.822 -3.821,-3.822 -2.103,0 -3.821,1.719 -3.821,3.822 V -3.821 C -3.821,-1.719 -2.103,0 0,0"
             style="fill:#bd7b38;fill-opacity:1;fill-rule:evenodd;stroke:none"
             id="path61657" />
        </g>
        <g
           id="g61659"
           transform="translate(567.7734,335.3491)">
          <path
             d="M 0,0 V 0 C 2.102,0 3.821,-1.719 3.821,-3.821 V -21.02 c 0,-2.101 -1.719,-3.821 -3.821,-3.821 -2.102,0 -3.821,1.72 -3.821,3.821 V -3.821 C -3.821,-1.719 -2.102,0 0,0"
             style="fill:#bd7b38;fill-opacity:1;fill-rule:evenodd;stroke:none"
             id="path61661" />
        </g>
        <g
           id="g61663"
           transform="translate(584.207,311.4644)">
          <path
             d="M 0,0 V 0 C 2.103,0 3.821,-1.72 3.821,-3.821 V -8.6 c 0,-2.101 -1.718,-3.821 -3.821,-3.821 -2.102,0 -3.822,1.72 -3.822,3.821 v 4.779 C -3.822,-1.72 -2.102,0 0,0"
             style="fill:#bd7b38;fill-opacity:1;fill-rule:evenodd;stroke:none"
             id="path61665" />
        </g>
        <g
           id="g61667"
           transform="translate(564.7158,292.165)">
          <path
             d="m 0,0 v 0 c 2.103,0 3.821,-1.72 3.821,-3.821 v -64.967 c 0,-2.103 -1.718,-3.822 -3.821,-3.822 -2.102,0 -3.821,1.719 -3.821,3.822 V -3.821 C -3.821,-1.72 -2.102,0 0,0"
             style="fill:#bd7b38;fill-opacity:1;fill-rule:evenodd;stroke:none"
             id="path61669" />
        </g>
        <g
           id="g61671"
           transform="translate(584.5303,258.8105)">
          <path
             d="m 0,0 v 0 c 2.103,0 3.821,-1.719 3.821,-3.821 v -64.967 c 0,-2.102 -1.718,-3.82 -3.821,-3.82 -2.103,0 -3.821,1.718 -3.821,3.82 V -3.821 C -3.821,-1.719 -2.103,0 0,0"
             style="fill:#bd7b38;fill-opacity:1;fill-rule:evenodd;stroke:none"
             id="path61673" />
        </g>
        <g
           id="g61675"
           transform="translate(567.0693,192.3857)">
          <path
             d="M 0,0 H 0.001 C 2.103,0 3.823,-1.721 3.823,-3.821 V -21.02 c 0,-2.101 -1.72,-3.822 -3.822,-3.822 H 0 c -2.1,0 -3.821,1.721 -3.821,3.822 V -3.821 C -3.821,-1.721 -2.1,0 0,0"
             style="fill:#bd7b38;fill-opacity:1;fill-rule:evenodd;stroke:none"
             id="path61677" />
        </g>
        <g
           id="g61679"
           transform="translate(585.7422,166.0244)">
          <path
             d="m 0,0 v 0 c 2.102,0 3.821,-1.721 3.821,-3.822 v -32.485 c 0,-2.102 -1.719,-3.821 -3.821,-3.821 -2.103,0 -3.822,1.719 -3.822,3.821 V -3.822 C -3.822,-1.721 -2.103,0 0,0"
             style="fill:#bd7b38;fill-opacity:1;fill-rule:evenodd;stroke:none"
             id="path61681" />
        </g>
        <g
           id="g61683"
           transform="translate(567.0088,138.9189)">
          <path
             d="m 0,0 v 0 c 2.102,0 3.821,-1.72 3.821,-3.82 v -17.198 c 0,-2.103 -1.719,-3.823 -3.821,-3.823 -2.102,0 -3.822,1.72 -3.822,3.823 V -3.82 C -3.822,-1.72 -2.102,0 0,0"
             style="fill:#bd7b38;fill-opacity:1;fill-rule:evenodd;stroke:none"
             id="path61685" />
        </g>
        <g
           id="g61687"
           transform="translate(581.21,86.3281)">
          <path
             d="m 0,0 h 0.001 c 2.102,0 3.822,-1.719 3.822,-3.82 v -4.779 c 0,-2.102 -1.72,-3.821 -3.822,-3.821 H 0 c -2.102,0 -3.82,1.719 -3.82,3.821 V -3.82 C -3.82,-1.719 -2.102,0 0,0"
             style="fill:#bd7b38;fill-opacity:1;fill-rule:evenodd;stroke:none"
             id="path61689" />
        </g>
        <g
           id="g61691"
           transform="translate(564.0527,100.0488)">
          <path
             d="M 0,0 V 0 C 2.102,0 3.821,-1.72 3.821,-3.822 V -37.18 c 0,-2.101 -1.719,-3.822 -3.821,-3.822 -2.102,0 -3.821,1.721 -3.821,3.822 V -3.822 C -3.821,-1.72 -2.102,0 0,0"
             style="fill:#bd7b38;fill-opacity:1;fill-rule:evenodd;stroke:none"
             id="path61693" />
        </g>
        <g
           id="g61695"
           transform="translate(580.7656,39.5576)">
          <path
             d="m 0,0 h 0.002 c 2.101,0 3.821,-1.72 3.821,-3.82 v -17.198 c 0,-2.103 -1.72,-3.823 -3.821,-3.823 H 0 c -2.101,0 -3.82,1.72 -3.82,3.823 V -3.82 C -3.82,-1.72 -2.101,0 0,0"
             style="fill:#bd7b38;fill-opacity:1;fill-rule:evenodd;stroke:none"
             id="path61697" />
        </g>
      </g>
    </g>
  </g>
</svg>
